<svg width="256" height="256" viewBox="0 0 256 256" fill="none" xmlns="http://www.w3.org/2000/svg">
<g clip-path="url(#clip0_224_5353)">
<rect width="256" height="256" rx="40" fill="url(#paint0_linear_224_5353)"/>
<path d="M110.913 211.419V59.7738H166.447C177.209 59.7738 186.119 61.5509 193.178 65.105C200.237 68.6099 205.519 73.3735 209.023 79.3958C212.528 85.3688 214.281 92.107 214.281 99.6102C214.281 105.929 213.121 111.26 210.801 115.604C208.48 119.899 205.371 123.354 201.471 125.97C197.62 128.537 193.375 130.413 188.735 131.598V133.079C193.77 133.326 198.682 134.955 203.47 137.966C208.308 140.928 212.306 145.148 215.465 150.628C218.625 156.107 220.204 162.771 220.204 170.62C220.204 178.37 218.378 185.33 214.725 191.501C211.121 197.622 205.543 202.484 197.991 206.088C190.438 209.642 180.787 211.419 169.039 211.419H110.913ZM133.793 191.797H166.818C177.776 191.797 185.625 189.674 190.364 185.429C195.103 181.184 197.472 175.877 197.472 169.509C197.472 164.721 196.263 160.328 193.844 156.329C191.425 152.331 187.97 149.147 183.478 146.777C179.035 144.408 173.753 143.223 167.632 143.223H133.793V191.797ZM133.793 125.378H164.448C169.582 125.378 174.197 124.391 178.295 122.416C182.441 120.442 185.724 117.677 188.143 114.123C190.611 110.52 191.845 106.274 191.845 101.387C191.845 95.1182 189.648 89.8609 185.255 85.6156C180.861 81.3704 174.123 79.2477 165.04 79.2477H133.793V125.378Z" fill="white"/>
<path d="M40.4073 145V-6.64518H63.2874V125.304H132.002V145H40.4073Z" fill="white"/>
</g>
<defs>
<linearGradient id="paint0_linear_224_5353" x1="32.5" y1="4.15053e-06" x2="202" y2="241.5" gradientUnits="userSpaceOnUse">
<stop stop-color="#6C63FF"/>
<stop offset="0.942941" stop-color="#302A93"/>
</linearGradient>
<clipPath id="clip0_224_5353">
<rect width="256" height="256" rx="40" fill="white"/>
</clipPath>
</defs>
</svg>
